<?xml version="1.0" encoding="UTF-8" standalone="no"?>
<!-- Created with Inkscape (http://www.inkscape.org/) -->

<svg
   version="1.1"
   id="svg2"
   width="308.48001"
   height="308.48001"
   viewBox="0 0 308.48001 308.48001"
   sodipodi:docname="ChaosTheoryBR.svg"
   inkscape:version="1.3 (0e150ed6c4, 2023-07-21)"
   xmlns:inkscape="http://www.inkscape.org/namespaces/inkscape"
   xmlns:sodipodi="http://sodipodi.sourceforge.net/DTD/sodipodi-0.dtd"
   xmlns="http://www.w3.org/2000/svg"
   xmlns:svg="http://www.w3.org/2000/svg">
  <sodipodi:namedview
     id="namedview1"
     pagecolor="#ffffff"
     bordercolor="#000000"
     borderopacity="0.25"
     inkscape:showpageshadow="2"
     inkscape:pageopacity="0.0"
     inkscape:pagecheckerboard="0"
     inkscape:deskcolor="#d1d1d1"
     inkscape:zoom="2.5771524"
     inkscape:cx="154.24001"
     inkscape:cy="154.24001"
     inkscape:window-width="1920"
     inkscape:window-height="989"
     inkscape:window-x="0"
     inkscape:window-y="0"
     inkscape:window-maximized="1"
     inkscape:current-layer="svg2" />
  <defs
     id="defs6" />
  <g
     id="g8"
     transform="translate(-4.2656966,2.239999)">
    <path
       style="fill:#ed3523;stroke:none;stroke-width:0.32"
       d="m 134.72,37.760001 c -1.58944,4.38112 -3.91904,8.563521 -5.85888,12.800001 -0.75552,1.65056 -2.08864,3.62016 -2.30272,5.44 -0.2144,1.8224 1.432,3.7968 2.0608,5.44 1.96992,5.14592 2.71584,14.20736 -4.4592,15.828481 -3.38464,0.7648 -6.936,-2.419521 -8.704,-4.948481 -0.59872,-0.85664 -0.85568,-2.19072 -1.6992,-2.8352 -1.21792,-0.93088 -3.48576,-1.05088 -4.9568,-1.29888 -4.04544,-0.6816 -8.08064,-1.05504 -12.159997,-1.3344 -1.42112,-0.0976 -4.07968,-0.9456 -5.24704,0.22144 -1.16768,1.16768 -0.2352,3.81344 -0.19776,5.24704 0.10368,3.96384 0.59424,7.929281 1.25952,11.840001 0.2512,1.47712 0.3536,3.80672 1.25984,5.032 0.68736,0.9296 2.00576,1.2848 2.92544,1.94048 2.63296,1.87776 5.790397,5.51008 4.818237,9.027517 -1.937277,7.00992 -10.530877,6.05536 -15.698237,4.14272 -1.63168,-0.60416 -3.6544,-2.23232 -5.44,-2.05632 -1.95008,0.19232 -4.313921,1.792 -6.080001,2.632 -3.91904,1.86336 -7.83488,3.85408 -11.84,5.5216 v 0.64 l 10.88,2.56 c 0.0832,-5.15904 8.255041,-2.91744 11.200001,-1.91872 1.1232,0.3808 3.07648,0.93792 3.45376,2.24768 0.45856,1.59072 -2.41024,2.22944 -3.45376,2.47552 -0.9568,0.22528 -1.90016,0.35328 -2.88,0.39552 0.69728,0.98816 1.73632,0.99584 2.88,1.21696 2.03136,0.39296 4.04704,0.8816 6.08,1.25952 0.8448,0.15712 1.96992,0.50304 2.77568,0.0621 1.0048,-0.55008 1.61952,-1.9536 2.25504,-2.85856 1.32224,-1.88352 2.73888,-3.71744 4.26528,-5.44 C 105.20608,105.00256 112.24992,98.181443 120,95.360003 l -7.3312,6.454397 -8.0736,9.8656 -5.075197,9.28 c 1.245437,0.42176 3.781757,1.39072 5.051837,0.85504 1.55232,-0.65472 2.4976,-3.95136 3.33344,-5.33504 2.23456,-3.70048 5.14016,-6.92928 8.25472,-9.90752 5.86528,-5.608 13.74112,-10.281597 21.76,-11.914237 2.0768,-0.42272 4.28064,-0.80288 6.4,-0.88544 1.53664,-0.05984 2.98432,0.3984 4.48,-0.0128 l -5.248,-26.880001 -1.15232,-6.4 -1.27968,-2.88 c -0.0806,0.98624 -0.26624,1.92352 -0.5248,2.88 -0.26592,0.98336 -1.0144,3.88928 -2.57152,3.1808 -1.0608,-0.48288 -1.56224,-2.17984 -1.91328,-3.1808 -0.92448,-2.63552 -1.592,-5.5088 -1.36064,-8.32 0.16512,-2.00192 1.07712,-3.35584 3.17024,-3.2 l -2.56,-11.200001 h -0.64 m 88.32001,33.600001 c 1.45696,2.81216 3.80672,5.16928 5.34112,8.000001 3.97152,7.32544 5.94912,16.0368 4.76192,24.319997 -0.42016,2.93184 -1.1936,5.87008 -2.23904,8.64 -0.68896,1.82528 -1.65184,3.536 -2.104,5.44 -2.01984,-1.54944 -3.3888,-3.91232 -5.14848,-5.7552 -2.97984,-3.12064 -6.6896,-5.81472 -10.53152,-7.76288 -1.55136,-0.78656 -3.96736,-2.33344 -5.76,-2.22304 -1.50656,0.0928 -2.95744,1.70944 -4.16,2.5072 -2.22144,1.47392 -4.6336,2.24736 -7.04,3.31392 1.47584,-2.09728 3.3264,-3.8512 4.65504,-6.08 3.55168,-5.957757 5.19488,-14.163197 2.70496,-20.799997 -3.224,2.3728 -5.75776,5.80352 -8.96,8.3152 -7.56864,5.93696 -16.6176,10.43744 -25.92,12.889597 -4.4544,1.1744 -9.15584,1.94944 -13.76,2.07232 -3.13217,0.0835 -6.12129,-0.21856 -9.28001,0.1744 -8.67584,1.07936 -16.86528,4.64704 -23.36,10.52288 -5.4944,4.97056 -8.89056,11.81984 -10.96928,18.8256 -0.7312,2.46368 -0.72448,5.31168 -1.69088,7.68 -0.93696,2.29632 -3.18208,4.16384 -4.3696,6.4 -3.44864,6.49217 -4.55712,14.39137 -2.17024,21.44001 4.43328,-1.62304 8.41984,-4.70848 12.8,-6.58336 10.23424,-4.37984 21.80352,-6.92256 32.96,-5.84224 7.54753,0.73088 14.85985,2.63648 21.76001,5.80448 23.63808,10.85216 39.0032,35.60416 39.63872,61.34112 0.19584,7.92768 -2.01056,15.59008 -4.43872,23.04 2.3392,-0.53536 4.41888,-2.16288 6.4,-3.46592 4.40512,-2.89728 8.52384,-6.12192 12.48,-9.60448 6.54848,-5.7648 12.32128,-12.3872 17.27168,-19.5696 1.53248,-2.22304 4.48224,-5.55104 4.71104,-8.32 0.17856,-2.15968 -1.11232,-5.03072 -1.84,-7.04 -1.86944,-5.16224 -3.98624,-10.25728 -6.70272,-15.04 -8.76032,-15.424 -20.84128,-29.0576 -35.52,-39.10113 -3.40544,-2.32992 -6.8992,-4.41792 -10.56,-6.31904 -2.18592,-1.13536 -4.60096,-2.46656 -7.04,-2.89984 v -0.32 c 4.94464,0.10208 10.00128,1.71648 14.72,3.06336 15.91392,4.54208 30.48832,12.9984 42.88,23.90785 3.49984,3.08128 6.87168,6.55648 9.84,10.1488 1.62976,1.97248 3.18976,4.94368 5.52,6.08 0.18432,-2.25504 0.88448,-4.48224 1.2544,-6.72 0.83296,-5.04064 1.49952,-10.25632 1.5968,-15.36 0.43616,-22.83265 -5.936,-45.30209 -18.63776,-64.320007 -3.76896,-5.64288 -8.24704,-10.99168 -13.14464,-15.680001 -1.82784,-1.75008 -3.64,-4.0432 -5.9488,-5.12 m -121.90593,4.29888 c 4.43712,-1.29312 9.8656,3.569601 12.02208,6.901121 1.20768,1.86592 2.6992,5.296 -0.20224,6.43392 -1.36256,0.5344 -2.87136,0.02304 -4.15392,-0.4992 -3.20896,-1.30624 -6.27424,-3.92736 -8.05472,-6.89472 -0.970877,-1.61824 -2.285757,-5.161921 0.3888,-5.941121 m 19.82592,19.061121 -0.32,0.32 0.32,-0.32 m -0.64,0.32 -0.32,0.32 0.32,-0.32 M 49.280002,120.64 c -12.754881,39.88897 -0.63712,83.96289 30.215681,112.21249 7.54464,6.90816 15.99392,12.73344 25.144317,17.30848 2.8512,1.4256 6.95264,4.33888 10.24,3.24544 3.69824,-1.22976 7.27488,-3.5408 10.56,-5.59072 17.94304,-11.1984 29.87777,-32.0784 30.40481,-53.25568 0.13664,-5.49312 0.15072,-10.85536 -0.84128,-16.32 -0.31072,-1.712 -0.4912,-4.46176 -2.04353,-5.44 -0.84224,3.54528 -2.86432,7.09376 -4.66528,10.24 -5.28512,9.23424 -12.66688,17.104 -21.57472,22.92992 -2.66176,1.7408 -5.46784,3.26592 -8.32,4.66816 -1.13632,0.55872 -2.5424,1.41888 -3.84,1.44384 -2.30112,0.0445 -5.10432,-2.08672 -7.04,-3.16672 -5.76128,-3.21376 -11.423997,-6.5872 -16.639997,-10.65088 C 72.584962,184.01025 59.823682,164.70209 53.624322,142.4 c -1.93952,-6.97728 -3.70432,-14.49216 -3.70432,-21.76 h -0.64 M 142.08,122.88 v 0.32 l -4.66304,3.86848 -2.43136,2.52256 -6.3456,0.64896 c 2.736,-3.87328 8.64448,-7.25792 13.44,-7.36 m 25.60001,48.32001 c 0.43296,2.42848 1.84352,4.70656 2.6576,7.04 1.29568,3.71456 2.07072,7.6352 2.64576,11.52 2.72224,18.39264 -2.39136,38.168 -14.40352,52.48 -3.99264,4.75712 -8.52225,8.7984 -13.61985,12.3408 -1.76352,1.22528 -3.59232,2.37216 -5.44,3.46624 -1.0592,0.62688 -2.19808,1.072 -2.88,2.11296 11.93664,2.224 24.93089,1.60576 36.80001,-0.768 2.79744,-0.55936 5.57664,-1.1952 8.32,-1.97728 1.11872,-0.31872 2.49408,-0.5168 3.41472,-1.27488 1.64576,-1.35488 2.62304,-3.98976 3.44,-5.89984 2.17952,-5.09632 3.48928,-10.49696 4.0784,-16 1.88,-17.56064 -2.0352,-35.41856 -12.3984,-49.92 -3.3648,-4.70848 -7.65952,-10.02048 -12.61472,-13.12 z"
       id="path856" />
  </g>
</svg>
