<?xml version="1.0" encoding="UTF-8" standalone="no"?>
<!DOCTYPE svg PUBLIC "-//W3C//DTD SVG 1.1//EN" "http://www.w3.org/Graphics/SVG/1.1/DTD/svg11.dtd">
<svg width="100%" height="100%" viewBox="0 0 33 33" version="1.1" xmlns="http://www.w3.org/2000/svg" xmlns:xlink="http://www.w3.org/1999/xlink" xml:space="preserve" xmlns:serif="http://www.serif.com/" style="fill-rule:evenodd;clip-rule:evenodd;stroke-linejoin:round;stroke-miterlimit:2;">
    <g transform="matrix(1,0,0,1,-213,-29)">
        <g transform="matrix(4.625,0,0,1.47541,0,119.633)">
            <g id="python" transform="matrix(0.216216,0,0,0.677778,-1.89261,-80.918)">
                <path d="M230.54,35.065L230.54,33.156C230.54,30.953 231.126,29.758 234.357,29.187C235.454,28.993 236.7,28.882 238.005,28.876C239.31,28.87 240.671,28.969 241.983,29.188C243.999,29.524 245.706,31.005 245.796,32.992L245.796,39.446C245.796,40.465 245.391,41.442 244.671,42.163C243.95,42.883 242.973,43.288 241.954,43.288L234.388,43.277C232.839,43.277 231.353,43.893 230.257,44.988C229.162,46.084 228.546,47.57 228.546,49.119L228.546,52.535L226.963,52.535C224.744,52.535 223.448,50.925 222.906,48.665C222.174,45.629 222.205,43.814 222.906,40.906C223.461,38.589 225.129,37.276 227.103,37.065L239.174,37.065L239.174,35.065L230.54,35.065ZM233.877,31.216C233.085,31.216 232.444,31.87 232.444,32.675C232.444,33.477 233.085,34.125 233.877,34.125C234.665,34.125 235.309,33.477 235.309,32.675C235.309,31.87 234.665,31.216 233.877,31.216ZM245.799,54.505L245.799,56.415C245.799,58.617 243.904,59.737 241.982,60.294C239.091,61.133 236.773,61.004 234.357,60.294C232.408,59.721 230.663,58.566 230.546,56.624C230.546,56.624 230.571,48.616 230.62,48.371C230.834,47.341 231.464,46.442 232.322,45.88C232.934,45.49 233.65,45.277 234.388,45.277L241.954,45.288C243.504,45.288 244.989,44.673 246.085,43.577C247.18,42.482 247.796,40.996 247.796,39.446L247.796,37.035L249.617,37.035C251.839,37.035 252.886,38.697 253.434,40.906C254.197,43.973 254.231,46.273 253.434,48.665C252.725,50.8 251.969,52.28 250.128,52.505L237.174,52.505L237.174,54.505L245.799,54.505ZM242.463,55.445C241.674,55.445 241.03,56.093 241.03,56.895C241.03,57.7 241.674,58.354 242.463,58.354C243.254,58.354 243.895,57.7 243.895,56.895C243.895,56.093 243.254,55.445 242.463,55.445Z" style="fill:rgb(126,232,163);"/>
            </g>
        </g>
    </g>
</svg>
